<svg xmlns="http://www.w3.org/2000/svg" viewBox="0 0 800 600" preserveAspectRatio="none">
  <defs>
    <linearGradient id="night-sky" x2="0" y2="1">
      <stop stop-color="#2d405c"/>
      <stop offset="1" stop-color="#9dafba"/>
    </linearGradient>
    <mask id="crescent">
      <rect width="800" height="600" fill="black"/>
      <circle cx="663" cy="91" r="36" fill="white"/>
      <circle cx="680" cy="78" r="32" fill="black"/>
    </mask>
  </defs>
  <rect width="800" height="600" fill="url(#night-sky)"/>
  <circle cx="663" cy="91" r="53" fill="#fff3c5" opacity=".06"/>
  <rect width="800" height="600" fill="#fff1c4" mask="url(#crescent)"/>
  <g fill="#fff6db" opacity=".8">
    <circle cx="62" cy="43" r="2"/><circle cx="215" cy="100" r="2"/>
    <circle cx="347" cy="43" r="2.5"/><circle cx="468" cy="104" r="2"/>
    <circle cx="750" cy="161" r="2"/><circle cx="94" cy="191" r="2"/>
    <circle cx="311" cy="145" r="1.5"/><circle cx="575" cy="190" r="2"/>
    <circle cx="714" cy="29" r="1.5"/><circle cx="402" cy="203" r="1.5"/>
    <path d="m154 38 2 6 6 2-6 2-2 6-2-6-6-2 6-2Z"/>
    <path d="m525 29 2 7 7 2-7 2-2 7-2-7-7-2 7-2Z"/>
  </g>
</svg>
