<svg xmlns="http://www.w3.org/2000/svg" viewBox="0 0 96 96"><defs><linearGradient id="wall" x2=".6" y2="1"><stop stop-color="#fff9e9"/><stop offset="1" stop-color="#ecdbb7"/></linearGradient><linearGradient id="roof" x2=".5" y2="1"><stop stop-color="#efb49c"/><stop offset="1" stop-color="#ce8c75"/></linearGradient><linearGradient id="door" x2="1" y2="1"><stop stop-color="#bfcca6"/><stop offset="1" stop-color="#92aa81"/></linearGradient></defs><g stroke="#ac9270" stroke-width="1.8" stroke-linejoin="round"><path d="M63 16H74V37H63Z" fill="#d5b38b"/><path d="M20 42V77Q20 82 26 82H70Q76 82 76 77V42L48 21Z" fill="url(#wall)"/><path d="M12 43L43 15Q48 11 53 15L84 43Q87 47 82 50Q79 52 76 49L48 26L20 49Q16 52 12 49Q9 46 12 43Z" fill="url(#roof)"/><path d="M40 82V60Q40 52 48 52Q56 52 56 60V82" fill="url(#door)"/><rect x="26" y="49" width="11" height="13" rx="3" fill="#c4d7d5"/><rect x="61" y="49" width="11" height="13" rx="3" fill="#c4d7d5"/><path d="M31.5 50V61M62 55.5H71M27 55.5H36M66.5 50V61" stroke="#fff8e9"/><circle cx="51" cy="68" r="1.5" fill="#9a7856" stroke="none"/><path d="M17 83H79" stroke="#b9c79e" stroke-width="4" stroke-linecap="round"/></g></svg>
